<svg width="241" height="98" viewBox="0 0 241 98" fill="none" xmlns="http://www.w3.org/2000/svg">
<g clip-path="url(#clip0_29_144)">
<path d="M120.019 6.25821e-06C119.913 -0.000411828 119.807 0.020122 119.709 0.0604354C119.61 0.100749 119.521 0.160052 119.445 0.234959C119.37 0.309867 119.31 0.398911 119.269 0.497007C119.228 0.595104 119.206 0.700332 119.206 0.806683V6.71284V10.4647L97.7586 19.8285C97.6135 19.8922 97.4903 19.997 97.4042 20.13C97.3181 20.263 97.2729 20.4183 97.2742 20.5766V24.7255C97.2751 24.9403 97.3613 25.1459 97.5138 25.2972C97.6664 25.4485 97.8729 25.533 98.0878 25.5322H99.4221V45.3496H98.0878C97.9814 45.3492 97.8759 45.3697 97.7774 45.41C97.6789 45.4503 97.5894 45.5096 97.5138 45.5845C97.4383 45.6594 97.3782 45.7485 97.3371 45.8466C97.296 45.9447 97.2746 46.0499 97.2742 46.1563C97.2738 46.2631 97.2946 46.3691 97.3353 46.4679C97.376 46.5667 97.4359 46.6565 97.5116 46.7321C97.5872 46.8077 97.6771 46.8675 97.776 46.9082C97.8749 46.9489 97.9808 46.9697 98.0878 46.9693H100.236H139.803H141.951C142.057 46.9689 142.163 46.9475 142.261 46.9064C142.359 46.8653 142.448 46.8053 142.523 46.7298C142.598 46.6543 142.657 46.5648 142.698 46.4664C142.738 46.368 142.758 46.2626 142.758 46.1563C142.757 45.9426 142.672 45.7379 142.521 45.5868C142.369 45.4357 142.165 45.3504 141.951 45.3496H140.61V25.5322H141.951C142.165 25.5313 142.369 25.4461 142.521 25.295C142.672 25.1439 142.757 24.9392 142.758 24.7255V20.5766C142.759 20.4183 142.714 20.263 142.628 20.13C142.542 19.997 142.419 19.8922 142.274 19.8285L120.827 10.4647V7.51952H128.904C129.117 7.51866 129.322 7.4334 129.474 7.2823C129.625 7.13121 129.71 6.92652 129.711 6.71284V0.806683C129.71 0.593001 129.625 0.388315 129.474 0.237218C129.322 0.0861218 129.117 0.000859161 128.904 6.25821e-06H120.019ZM120.827 1.61336H128.095V5.89984H120.827V1.61336ZM120.019 11.8787L141.137 21.1018V23.9125H98.895V21.1018L120.019 11.8787ZM119.942 15.4534C118.335 15.4947 117.028 16.8286 117.028 18.4429C117.028 20.0828 118.378 21.426 120.019 21.426C121.661 21.426 123.005 20.0828 123.005 18.4429C123.005 16.803 121.661 15.4534 120.019 15.4534C119.995 15.4534 119.967 15.4528 119.942 15.4534ZM120.019 17.0731C120.785 17.0731 121.384 17.6787 121.384 18.4429C121.384 19.2071 120.785 19.8048 120.019 19.8048C119.254 19.8048 118.649 19.2071 118.649 18.4429C118.649 17.6787 119.254 17.0731 120.019 17.0731ZM101.043 25.5322H138.989V45.3496H135.191V32.6578C135.191 30.861 133.758 29.3647 131.977 29.3647C130.197 29.3647 128.771 30.861 128.771 32.6578V45.3496H123.226V32.6578C123.226 30.861 121.8 29.3647 120.019 29.3647C118.239 29.3647 116.806 30.861 116.806 32.6578V45.3496H111.266V32.6578C111.266 30.861 109.835 29.3647 108.055 29.3647C106.274 29.3647 104.842 30.861 104.842 32.6578V45.3496H101.043V25.5322ZM108.055 30.9844C108.933 30.9844 109.646 31.7 109.646 32.6578V45.3496H106.464V32.6578C106.464 31.7 107.176 30.9844 108.055 30.9844ZM120.019 30.9844C120.898 30.9844 121.604 31.7 121.604 32.6578V45.3496H118.429V32.6578C118.429 31.7 119.141 30.9844 120.019 30.9844ZM131.977 30.9844C132.856 30.9844 133.57 31.7 133.57 32.6578V45.3496H130.393V32.6578C130.393 31.7 131.099 30.9844 131.977 30.9844Z" fill="white" stroke="white" stroke-width="0.5"/>
<path d="M13.429 86.4564C10.4871 86.4564 8.31935 85.1025 6.96452 82.7815H6.69355L6.30645 86.0696H3.01613C3.20968 82.5494 3.20968 79.068 3.20968 75.5478V58.9915H6.69355V69.6293H6.96452C8.31935 67.3083 10.4871 65.9544 13.429 65.9544C18.5 65.9544 21.7903 70.0935 21.7903 76.2441C21.7903 82.356 18.5 86.4564 13.429 86.4564ZM12.5 83.3618C16.0226 83.3618 18.3065 80.5766 18.3065 76.2441C18.3065 71.9116 16.0226 69.0491 12.5 69.0491C8.97742 69.0491 6.69355 71.9116 6.69355 76.2441C6.69355 80.5766 8.97742 83.3618 12.5 83.3618Z" fill="white"/>
<path d="M31.4572 63.44C30.1023 63.44 28.9797 62.4343 28.9797 61.1191C28.9797 59.8039 30.1023 58.7981 31.4572 58.7981C32.7733 58.7981 33.8184 59.8039 33.8184 61.1191C33.8184 62.4343 32.7733 63.44 31.4572 63.44ZM38.3862 63.44C37.0313 63.44 35.9088 62.4343 35.9088 61.1191C35.9088 59.8039 37.0313 58.7981 38.3862 58.7981C39.7023 58.7981 40.7475 59.8039 40.7475 61.1191C40.7475 62.4343 39.7023 63.44 38.3862 63.44ZM33.3539 86.4564C28.8249 86.4564 26.0378 83.7486 26.0378 77.9462V66.3413H29.5217V77.7527C29.5217 81.505 31.2636 83.3618 34.283 83.3618C37.8055 83.3618 40.1668 80.6153 40.1668 77.1725V66.3413H43.6507V75.5478C43.6507 79.068 43.6507 82.5494 43.8443 86.0696H40.5539L40.1668 82.7815H39.8959C38.5023 85.1412 36.0636 86.4564 33.3539 86.4564Z" fill="white"/>
<path d="M58.935 65.9544C59.4769 65.9544 59.8253 65.9544 60.4834 65.9931V69.2812C59.864 69.2425 59.5543 69.2425 59.0124 69.2425C55.9156 69.2425 52.5479 71.138 52.5479 77.0178V86.0696H49.064V76.863C49.064 73.3429 49.064 69.8614 48.8705 66.3413H52.1608L52.6253 70.2096H52.8576C54.0189 67.4244 56.1866 65.9544 58.935 65.9544Z" fill="white"/>
<path d="M72.784 94.193C68.3324 94.193 64.9646 92.2588 63.7646 88.8547L66.9388 87.6943C67.7517 90.0926 69.7646 91.2918 72.784 91.2918C76.0356 91.2918 78.0872 89.5124 78.0872 86.1083V82.0079H77.8162C76.4614 84.3288 74.3324 85.6827 71.313 85.6827C66.2808 85.6827 62.9904 81.7371 62.9904 75.8186C62.9904 69.9001 66.2808 65.9544 71.313 65.9544C74.2937 65.9544 76.4614 67.3083 77.8162 69.6293H78.0872L78.4743 66.3413H81.7646C81.5711 69.8614 81.5711 73.0721 81.5711 76.4762V86.2243C81.5711 91.021 78.3969 94.193 72.784 94.193ZM72.2808 82.5881C75.842 82.5881 78.0872 79.7643 78.0872 75.7799C78.0872 71.7956 75.842 69.0491 72.2808 69.0491C68.7195 69.0491 66.4743 71.8342 66.4743 75.8186C66.4743 79.8029 68.7195 82.5881 72.2808 82.5881Z" fill="white"/>
<path d="M104.206 75.7025C104.206 76.2828 104.167 76.9017 104.09 77.4046H89.5734C89.9218 81.1568 92.1669 83.5552 95.496 83.5552C97.7411 83.5552 99.4056 82.5881 100.567 80.2671L103.664 81.3889C102.27 84.7544 99.3669 86.4564 95.496 86.4564C89.6121 86.4564 86.0121 81.9692 86.0121 76.2054C86.0121 70.4417 89.5734 65.9544 95.4573 65.9544C100.644 65.9544 104.206 69.552 104.206 75.7025ZM95.4573 68.8557C92.2444 68.8557 90.0766 71.0606 89.6121 74.6194H100.877C100.567 70.9445 98.4379 68.8557 95.4573 68.8557Z" fill="white"/>
<path d="M118.512 65.9544C119.054 65.9544 119.402 65.9544 120.06 65.9931V69.2812C119.441 69.2425 119.131 69.2425 118.589 69.2425C115.492 69.2425 112.125 71.138 112.125 77.0178V86.0696H108.641V76.863C108.641 73.3429 108.641 69.8614 108.447 66.3413H111.737L112.202 70.2096H112.434C113.595 67.4244 115.763 65.9544 118.512 65.9544Z" fill="white"/>
<path d="M130.692 93.8062H123.143V76.863C123.143 73.3429 123.143 69.8614 122.95 66.3413H130.188L130.692 69.4359H131.079C132.395 67.1923 134.446 65.9544 137.04 65.9544C141.801 65.9544 144.627 69.668 144.627 76.2054C144.627 82.7428 141.801 86.4564 137.04 86.4564C134.446 86.4564 132.395 85.2185 131.079 82.9749H130.692V93.8062ZM133.904 80.4605C135.84 80.4605 137.079 78.8359 137.079 76.2054C137.079 73.575 135.84 71.9503 133.904 71.9503C131.93 71.9503 130.692 73.575 130.692 76.2054C130.692 78.8359 131.93 80.4605 133.904 80.4605Z" fill="white"/>
<path d="M157.542 86.4564C150.459 86.4564 146.936 82.0079 146.936 76.2054C146.936 70.403 150.459 65.9544 157.542 65.9544C164.626 65.9544 168.149 70.403 168.149 76.2054C168.149 82.0079 164.626 86.4564 157.542 86.4564ZM157.542 80.4605C159.401 80.4605 160.601 78.8359 160.601 76.2054C160.601 73.575 159.401 71.9503 157.542 71.9503C155.684 71.9503 154.484 73.575 154.484 76.2054C154.484 78.8359 155.684 80.4605 157.542 80.4605Z" fill="white"/>
<path d="M184.887 65.9544C185.235 65.9544 185.545 65.9544 185.971 65.9931V73.575C185.351 73.4976 185.042 73.4976 184.461 73.4976C181.48 73.4976 179.003 74.9289 179.003 79.4161V86.0696H171.455V76.863C171.455 73.3429 171.455 69.8614 171.261 66.3413H178.5L179.119 70.5964H179.661C180.629 67.4244 182.526 65.9544 184.887 65.9544Z" fill="white"/>
<path d="M198.753 86.4564C194.186 86.4564 191.166 84.1741 191.166 78.6811V72.1437H187.489V66.3413H191.437L192.366 60.5388H198.715V66.3413H203.399V72.1437H198.715V78.2169C198.715 79.8416 199.566 80.4605 200.766 80.4605C201.386 80.4605 202.044 80.3058 202.624 79.9963L204.134 85.1799C202.47 86.0309 200.921 86.4564 198.753 86.4564Z" fill="white"/>
<path d="M226.456 73.2268V75.9346C226.456 79.3387 226.456 82.6655 226.65 86.0696H219.759L219.295 82.9749H218.908C217.708 85.2572 215.85 86.4564 212.792 86.4564C208.998 86.4564 206.521 84.1354 206.521 80.6926C206.521 76.7857 209.153 74.6194 214.611 74.2713L219.179 74.0005V73.5363C219.179 71.7569 218.095 71.0993 216.392 71.0993C214.689 71.0993 213.566 71.9116 213.372 73.3816L206.753 72.0277C207.372 68.3141 210.818 65.9544 216.392 65.9544C223.205 65.9544 226.456 68.7783 226.456 73.2268ZM215.889 81.1568C217.63 81.1568 219.14 80.035 219.179 77.482L216.469 77.6367C214.456 77.7527 213.721 78.3717 213.721 79.5322C213.721 80.5379 214.418 81.1568 215.889 81.1568Z" fill="white"/>
<path d="M238.126 86.0696H230.578V58.9915H238.126V86.0696Z" fill="white"/>
</g>
<defs>
<clipPath id="clip0_29_144">
<rect width="240" height="97.6744" fill="white" transform="translate(0.5)"/>
</clipPath>
</defs>
</svg>
